# xmcd
#
# Track frame offsets:
#	150
#	15802
#	36997
#	58158
#	80019
#	98647
#	120592
#	140907
#	161708
#	181089
#
# Disc length: 2637 seconds
#
# Revision: 0
# Processed by: cddbd v1.5.1PL0 Copyright (c) Steve Scherf et al.
# Submitted via: dBpowerAMP V4.0
#
DISCID=7e0a4b0a
DTITLE=Stephanie Mills - The Best Of Stephanie Mills 
DYEAR=1998
DGENRE=R and B
TTITLE0=Never Knew Love Like This Before
TTITLE1=Two Hearts - (featuring Teddy Pendergrass)
TTITLE2=What Cha Gonna Do With My Lovin'
TTITLE3=Everlasting Love
TTITLE4=Put Your Body In It
TTITLE5=Winner - (bonus track)
TTITLE6=Sweet Sensation
TTITLE7=Wish That You Were Mine
TTITLE8=I Believe In Love Songs - (bonus track)
TTITLE9=Top Of My List
EXTD=
EXTT0=
EXTT1=
EXTT2=
EXTT3=
EXTT4=
EXTT5=
EXTT6=
EXTT7=
EXTT8=
EXTT9=
PLAYORDER=
